<?xml version="1.0" standalone="no"?>
<!DOCTYPE svg PUBLIC "-//W3C//DTD SVG 1.1//EN" "http://www.w3.org/Graphics/SVG/1.1/DTD/svg11.dtd" >
<svg>
<metadata>
Created by FontForge 20090622 at Sat Jul  9 12:53:43 2016
 By deploy user
Copyright 2001 Double Alex Font Studio.
</metadata>
<defs>
<font id="PlumbCondensedBold" horiz-adv-x="416" >
  <font-face 
    font-family="PlumbCondensed"
    font-weight="700"
    font-stretch="condensed"
    units-per-em="1000"
    panose-1="0 0 0 0 0 0 0 0 0 0"
    ascent="800"
    descent="-200"
    x-height="514"
    cap-height="712"
    bbox="-45 -204 1000 908"
    underline-thickness="50"
    underline-position="-75"
    unicode-range="U+0020-U+2265"
  />
<missing-glyph horiz-adv-x="1000" 
 />
    <glyph glyph-name=".notdef" horiz-adv-x="1000" 
 />
    <glyph glyph-name=".null" horiz-adv-x="0" 
 />
    <glyph glyph-name="nonmarkingreturn" horiz-adv-x="333" 
 />
    <glyph glyph-name="space" unicode=" " horiz-adv-x="163" 
 />
    <glyph glyph-name="exclam" unicode="!" horiz-adv-x="253" 
d="M207 712l-29 -493h-95l-29 493h153zM209 73q0 -34 -23 -57t-56 -23q-32 0 -55 23t-23 55t23 55.5t55 23.5t55.5 -23t23.5 -54z" />
    <glyph glyph-name="quotedbl" unicode="&#x22;" horiz-adv-x="352" 
d="M313 494h-106v218h106v-218zM145 494h-107v218h107v-218z" />
    <glyph glyph-name="numbersign" unicode="#" horiz-adv-x="506" 
d="M470 423h-68l-14 -115h56v-118h-70l-22 -190h-105l22 190v0v0h-1h-1v0h-1h-1h-1h-1h-1h-1h-1h-1h-1h-1h-1h-1h-1h-1h-2h-1h-1h-1h-1h-2h-1h-1h-2h-1h-1h-2h-1h-2h-1h-2h-1h-2h-1h-2h-1h-2h-2h-1h-2h-2h-1h-2h-2h-1h-2h-2h-2h-8l-22 -190h-105l22 190h-55v118h69l13 115
h-55v118h69l21 171h105l-21 -171h75l21 171h105l-21 -171h54v-118zM297 423h-75l-13 -115h74z" />
    <glyph glyph-name="dollar" unicode="$" horiz-adv-x="425" 
d="M402 205q0 -179 -134 -206v-113h-111v112q-135 28 -139 199h126q3 -44 18 -63.5t46 -19.5q35 0 50 20.5t15 64.5q0 45 -14.5 65.5t-56.5 31.5l-26 7q-45 12 -70 27t-44 41q-36 48 -36 154q0 160 131 188v93h111v-92q62 -13 93.5 -59t35.5 -132h-127q-3 43 -15 60.5
t-42 17.5q-58 0 -58 -75q0 -45 12.5 -62.5t54.5 -30.5l24 -7q85 -25 112 -55q44 -47 44 -166z" />
    <glyph glyph-name="percent" unicode="%" horiz-adv-x="607" 
d="M253 472q0 -63 -31.5 -95.5t-82.5 -32.5t-82.5 32.5t-31.5 95.5v118q0 63 31.5 95.5t82.5 32.5t82.5 -32.5t31.5 -95.5v-118zM473 712l-252 -712h-87l252 712h87zM582 122q0 -63 -31 -95.5t-82 -32.5t-83 32.5t-32 95.5v118q0 63 32 95.5t83 32.5t82 -32.5t31 -95.5v-118
zM168 475v112q0 27 -6.5 38.5t-22.5 11.5t-23 -11.5t-7 -38.5v-112q0 -27 6.5 -38t23.5 -11q29 0 29 49zM498 124v113q0 49 -29 49q-17 0 -23.5 -11t-6.5 -38v-113q0 -26 7 -37.5t23 -11.5q29 0 29 49z" />
    <glyph glyph-name="ampersand" unicode="&#x26;" horiz-adv-x="527" 
d="M510 0h-143l-20 33q-62 -39 -132 -39q-90 0 -142 51t-52 149q0 66 28 109t80 84q-28 47 -42 85t-14 88q0 73 45.5 115.5t123.5 42.5q71 0 114.5 -40.5t43.5 -112.5q0 -29 -9 -55t-29 -50t-35.5 -39t-43.5 -39l82 -137q16 54 18 128h115q-3 -156 -62 -247zM282 560
q0 51 -42 51q-43 0 -43 -52q0 -31 32 -87q53 42 53 88zM289 127l-103 167q-39 -39 -39 -92q0 -42 20 -68.5t57 -26.5q38 0 65 20z" />
    <glyph glyph-name="quotesingle" unicode="'" horiz-adv-x="183" 
d="M145 494h-107v218h107v-218z" />
    <glyph glyph-name="parenleft" unicode="(" horiz-adv-x="323" 
d="M274 -6l-86 -87q-66 62 -89 102q-25 43 -25 129v436q0 86 25 129q23 40 89 102l86 -87q-42 -40 -56 -66q-15 -26 -15 -84v-424q0 -57 15 -84q16 -28 56 -66z" />
    <glyph glyph-name="parenright" unicode=")" horiz-adv-x="323" 
d="M249 138q0 -86 -25 -129q-21 -36 -89 -102l-86 87q42 42 56 66q15 27 15 84v424q0 58 -15 84q-12 22 -56 66l86 87q66 -62 89 -102q25 -43 25 -129v-436z" />
    <glyph glyph-name="asterisk" unicode="*" horiz-adv-x="383" 
d="M359 477l-50 -75l-78 58l7 -116h-92l7 115l-77 -57l-51 75l97 51l-97 51l51 76l77 -58l-7 115h92l-7 -115l78 58l50 -76l-98 -51z" />
    <glyph glyph-name="plus" unicode="+" 
d="M383 223h-117v-131h-116v131h-117v111h117v130h116v-130h117v-111z" />
    <glyph glyph-name="comma" unicode="," horiz-adv-x="227" 
d="M205 133l-81 -245h-102l51 245h132z" />
    <glyph glyph-name="hyphen" unicode="-" horiz-adv-x="294" 
d="M253 229h-212v110h212v-110z" />
    <glyph glyph-name="period" unicode="." horiz-adv-x="232" 
d="M194 73q0 -34 -22.5 -57t-55.5 -23q-32 0 -55.5 23t-23.5 55t23.5 55.5t55.5 23.5t55 -23t23 -54z" />
    <glyph glyph-name="slash" unicode="/" horiz-adv-x="328" 
d="M331 786l-212 -860h-120l212 860h120z" />
    <glyph glyph-name="zero" unicode="0" 
d="M387 188q0 -100 -49.5 -147.5t-127.5 -47.5t-127.5 47.5t-49.5 147.5v336q0 100 49.5 147.5t127.5 47.5t127.5 -47.5t49.5 -147.5v-336zM261 189v333q0 45 -11.5 64t-39.5 19t-40 -19t-12 -64v-333q0 -45 12 -63.5t40 -18.5t39.5 18.5t11.5 63.5z" />
    <glyph glyph-name="one" unicode="1" 
d="M310 0h-126v561l-108 -111v152l108 110h126v-712z" />
    <glyph glyph-name="two" unicode="2" 
d="M386 530q0 -50 -16 -91t-50 -96l-143 -228h204v-115h-347v115l189 302q37 61 37 114q0 40 -12 57t-39 17q-26 0 -40 -20.5t-15 -73.5h-125q0 104 48.5 156t132.5 52q176 0 176 -189z" />
    <glyph glyph-name="three" unicode="3" 
d="M388 185q0 -192 -183 -192q-185 0 -185 201v10h126v-6q0 -48 13.5 -69.5t44.5 -21.5t45 21.5t14 69.5v24q0 46 -15.5 66t-51.5 20h-25v113h25q33 0 46.5 19.5t13.5 62.5v22q0 42 -12.5 61t-39.5 19t-39.5 -19t-12.5 -61v-11h-126v13q0 96 48.5 144.5t130.5 48.5
q176 0 176 -185v-34q0 -102 -78 -133q38 -12 61.5 -48.5t23.5 -96.5v-38z" />
    <glyph glyph-name="four" unicode="4" 
d="M400 101h-41v-101h-119v101h-222v114l184 497h131l-183 -497h90v132h119v-132h41v-114z" />
    <glyph glyph-name="five" unicode="5" 
d="M388 193q0 -200 -177 -200q-91 0 -134 51t-45 154h125q2 -50 13 -70.5t41 -20.5t41 22t11 70v77q0 52 -11 71t-42 19q-25 0 -37 -14.5t-16 -44.5h-118v405h331v-115h-220v-157q29 36 90 36q78 0 113 -47.5t35 -146.5v-89z" />
    <glyph glyph-name="six" unicode="6" 
d="M394 216q0 -117 -50 -170t-136 -53q-85 0 -135.5 53t-50.5 168q0 65 14.5 113t49.5 125l120 260h136l-136 -294q12 6 35 6q66 0 109.5 -49t43.5 -159zM268 214q0 59 -13 82.5t-47 23.5q-33 0 -46.5 -24t-13.5 -82q0 -59 13 -82t47 -23t47 23t13 82z" />
    <glyph glyph-name="seven" unicode="7" 
d="M392 597l-180 -597h-128l180 597h-117v-97h-119v212h364v-115z" />
    <glyph glyph-name="eight" unicode="8" 
d="M397 200q0 -106 -49.5 -156.5t-139.5 -50.5q-89 0 -139 50.5t-50 156.5q0 120 69 168q-63 42 -63 157q0 97 49.5 145.5t133.5 48.5q83 0 133 -48.5t50 -145.5q0 -115 -63 -157q69 -48 69 -168zM264 512q0 48 -11.5 71.5t-44.5 23.5t-44.5 -23.5t-11.5 -71.5
q0 -47 11.5 -69.5t44.5 -22.5t44.5 22.5t11.5 69.5zM272 208q0 52 -14 76.5t-50 24.5t-50 -24.5t-14 -76.5q0 -53 13.5 -78t50.5 -25t50.5 25t13.5 78z" />
    <glyph glyph-name="nine" unicode="9" 
d="M394 498q0 -65 -14.5 -113t-49.5 -125l-119 -260h-136l136 294q-14 -6 -36 -6q-66 0 -109.5 49t-43.5 159q0 117 50 170t136 53q85 0 135.5 -53t50.5 -168zM268 498q0 59 -13 82t-47 23t-47 -23t-13 -82t13 -82.5t47 -23.5q33 0 46.5 24t13.5 82z" />
    <glyph glyph-name="colon" unicode=":" horiz-adv-x="232" 
d="M195 414q0 -34 -23 -57t-56 -23q-32 0 -55 23t-23 55t23 55.5t55 23.5t55.5 -23t23.5 -54zM195 73q0 -34 -23 -57t-56 -23q-32 0 -55 23t-23 55t23 55.5t55 23.5t55.5 -23t23.5 -54z" />
    <glyph glyph-name="semicolon" unicode=";" horiz-adv-x="232" 
d="M197 414q0 -34 -23 -57t-56 -23q-32 0 -55 23t-23 55t23 55.5t55 23.5t55.5 -23t23.5 -54zM198 133l-81 -245h-102l51 245h132z" />
    <glyph glyph-name="less" unicode="&#x3c;" 
d="M386 83l-357 141v126l357 141v-126l-217 -78l217 -78v-126z" />
    <glyph glyph-name="equal" unicode="=" 
d="M373 335h-330v118h330v-118zM373 118h-330v118h330v-118z" />
    <glyph glyph-name="greater" unicode="&#x3e;" 
d="M386 224l-357 -141v126l217 78l-217 78v126l357 -141v-126z" />
    <glyph glyph-name="question" unicode="?" horiz-adv-x="387" 
d="M368 531q0 -81 -41 -142l-58 -84q-14 -21 -14 -55v-31h-126v37q0 61 29 103l62 90q22 33 22 82q0 37 -10.5 53.5t-35.5 16.5q-27 0 -38 -19t-11 -64h-125q0 100 46 150t128 50q172 0 172 -187zM272 73q0 -34 -23 -57t-56 -23q-32 0 -55 23t-23 55t23 55.5t55 23.5
t55.5 -23t23.5 -54z" />
    <glyph glyph-name="at" unicode="@" horiz-adv-x="563" 
d="M527 0h-115v36q-29 -42 -85 -42q-119 0 -119 158v160q0 154 116 154q56 0 87 -38v61q0 59 -18 86q-22 31 -71 31h-81q-50 0 -72 -31q-18 -26 -18 -86v-340q0 -36 7 -54t29 -39l-84 -71q-38 36 -53 67.5t-15 89.5v350q0 112 44 165q51 59 153 59h98q102 0 153 -59
q44 -53 44 -165v-492zM413 167v126q0 40 -11 55t-35 15q-23 0 -34 -15.5t-11 -54.5v-126q0 -40 10.5 -55t33.5 -15t35 15.5t12 54.5z" />
    <glyph glyph-name="A" unicode="A" horiz-adv-x="456" 
d="M453 0h-130l-24 115h-143l-23 -115h-129l165 712h116zM277 223l-37 177l-14 78l-13 -78q-35 -177 -36 -177h100z" />
    <glyph glyph-name="B" unicode="B" horiz-adv-x="461" 
d="M439 202q0 -105 -52 -153.5t-142 -48.5h-197v712h192q98 0 144.5 -47.5t46.5 -147.5v-14q0 -55 -22 -89.5t-53 -48.5q33 -12 58 -48.5t25 -100.5v-14zM300 507q0 44 -16 65t-54 21h-51v-171h53q38 0 53 21.5t15 63.5zM308 212q0 47 -15.5 69.5t-56.5 22.5h-57v-185h57
q41 0 56.5 23t15.5 70z" />
    <glyph glyph-name="C" unicode="C" horiz-adv-x="439" 
d="M416 219q-4 -226 -190 -226q-192 0 -192 219v288q0 219 192 219q89 0 139 -51.5t51 -173.5h-133q-1 59 -13 81.5t-44 22.5q-30 0 -45 -21t-15 -80v-281q0 -59 15.5 -80.5t43.5 -21.5q30 0 43.5 22.5t14.5 82.5h133z" />
    <glyph glyph-name="D" unicode="D" horiz-adv-x="463" 
d="M429 214q0 -115 -50 -164.5t-145 -49.5h-186v712h186q94 0 144.5 -47t50.5 -166v-285zM297 222v269q0 56 -17.5 78t-52.5 22h-48v-470h47q71 0 71 101z" />
    <glyph glyph-name="E" unicode="E" horiz-adv-x="395" 
d="M375 0h-330v712h330v-121h-199v-172h168v-120h-168v-178h199v-121z" />
    <glyph glyph-name="F" unicode="F" horiz-adv-x="392" 
d="M373 591h-197v-179h167v-121h-167v-291h-131v712h328v-121z" />
    <glyph glyph-name="G" unicode="G" horiz-adv-x="451" 
d="M422 213q0 -220 -196 -220q-192 0 -192 219v288q0 219 192 219q190 0 194 -221h-133q-1 57 -15 78.5t-44 21.5t-46 -20.5t-16 -80.5v-281q0 -60 15.5 -81t46.5 -21t47 21t16 82v60h-67v116h198v-180z" />
    <glyph glyph-name="H" unicode="H" horiz-adv-x="479" 
d="M430 0h-131v298h-120v-298h-131v712h131v-291h120v291h131v-712z" />
    <glyph glyph-name="I" unicode="I" horiz-adv-x="231" 
d="M181 0h-131v712h131v-712z" />
    <glyph glyph-name="J" unicode="J" horiz-adv-x="405" 
d="M360 212q0 -218 -182 -218q-120 0 -175 97l108 68q28 -44 63 -44q31 0 43 24t12 84v489h131v-500z" />
    <glyph glyph-name="K" unicode="K" horiz-adv-x="465" 
d="M465 0h-138l-109 295l-39 -72v-223h-131v712h131v-277l137 277h136l-145 -273z" />
    <glyph glyph-name="L" unicode="L" horiz-adv-x="393" 
d="M384 0h-336v712h131v-591h205v-121z" />
    <glyph glyph-name="M" unicode="M" horiz-adv-x="579" 
d="M531 0h-123v343l2 73l-14 -61l-66 -218h-80l-67 218l-14 61l2 -73v-343h-123v712h123l119 -389l119 389h122v-712z" />
    <glyph glyph-name="N" unicode="N" horiz-adv-x="497" 
d="M449 0h-108l-150 363l-23 64l3 -69v-358h-123v712h109l150 -363l22 -65l-2 71v357h122v-712z" />
    <glyph glyph-name="O" unicode="O" horiz-adv-x="453" 
d="M418 212q0 -219 -192 -219t-192 219v288q0 219 192 219t192 -219v-288zM287 216v281q0 59 -15.5 80t-45.5 21t-45 -21t-15 -80v-281q0 -59 15.5 -80.5t44.5 -21.5q30 0 45.5 21.5t15.5 80.5z" />
    <glyph glyph-name="P" unicode="P" horiz-adv-x="459" 
d="M436 477q0 -209 -191 -209h-66v-268h-131v712h197q191 0 191 -210v-25zM305 483v13q0 52 -16.5 74.5t-56.5 22.5h-53v-206h53q40 0 56.5 21.5t16.5 74.5z" />
    <glyph glyph-name="Q" unicode="Q" horiz-adv-x="455" 
d="M454 16l-96 -93l-77 75q-28 -5 -53 -5q-194 0 -194 219v288q0 219 194 219q193 0 193 -219v-288q0 -83 -29 -136zM288 216v281q0 59 -15 80t-45 21t-45.5 -21t-15.5 -80v-281q0 -59 15.5 -80.5t45.5 -21.5q29 0 44.5 21.5t15.5 80.5z" />
    <glyph glyph-name="R" unicode="R" horiz-adv-x="456" 
d="M442 0h-137l-89 284h-38v-284h-130v712h202q180 0 180 -202v-17q0 -138 -94 -182zM296 489v10q0 48 -15.5 70t-51.5 22h-51v-194h51q67 0 67 92z" />
    <glyph glyph-name="S" unicode="S" horiz-adv-x="425" 
d="M402 205q0 -212 -192 -212q-186 0 -192 204h127q2 -44 17 -63.5t46 -19.5q65 0 65 85q0 49 -19 71q-15 16 -52 26l-26 7q-45 12 -70 27t-44 41q-36 48 -36 154q0 95 48 144.5t139 49.5q90 0 134.5 -46.5t49.5 -149.5h-128q-2 43 -14.5 60.5t-41.5 17.5q-57 0 -57 -75
q0 -46 12 -63t54 -29l24 -7q83 -24 112 -56q44 -47 44 -166z" />
    <glyph glyph-name="T" unicode="T" horiz-adv-x="400" 
d="M389 591h-123v-591h-131v591h-125v121h379v-121z" />
    <glyph glyph-name="U" unicode="U" horiz-adv-x="475" 
d="M432 209q0 -215 -194 -215q-195 0 -195 215v503h131v-499q0 -54 13.5 -76t50.5 -22q36 0 49.5 22t13.5 76v499h131v-503z" />
    <glyph glyph-name="V" unicode="V" horiz-adv-x="450" 
d="M446 712l-164 -712h-111l-167 712h135l78 -384l11 -86l12 86l74 384h132z" />
    <glyph glyph-name="W" unicode="W" horiz-adv-x="658" 
d="M653 712l-129 -712h-114l-68 358l-13 83l-13 -83l-67 -358h-114l-132 712h135l55 -349l12 -100l14 100l60 349h98l61 -349l14 -100l12 100l54 349h135z" />
    <glyph glyph-name="X" unicode="X" horiz-adv-x="442" 
d="M441 0h-137l-67 181l-16 57l-17 -57l-67 -181h-136l149 367l-140 345h137l58 -159l16 -55l17 55l58 159h136l-141 -345z" />
    <glyph glyph-name="Y" unicode="Y" horiz-adv-x="445" 
d="M442 712l-154 -436v-276h-131v276l-154 436h135l65 -212l19 -79l19 79l65 212h136z" />
    <glyph glyph-name="Z" unicode="Z" horiz-adv-x="398" 
d="M371 0h-345v113l204 478h-197v121h338v-111l-204 -480h204v-121z" />
    <glyph glyph-name="bracketleft" unicode="[" horiz-adv-x="308" 
d="M277 -74h-217v860h217v-111h-92v-638h92v-111z" />
    <glyph glyph-name="backslash" unicode="\" horiz-adv-x="330" 
d="M331 -74h-120l-212 860h120z" />
    <glyph glyph-name="bracketright" unicode="]" horiz-adv-x="308" 
d="M248 -74h-218v111h92v638h-92v111h218v-860z" />
    <glyph glyph-name="asciicircum" unicode="^" 
d="M394 389h-118l-70 185l-69 -185h-117l133 330h107z" />
    <glyph glyph-name="underscore" unicode="_" horiz-adv-x="449" 
d="M449 -178h-449v87h449v-87z" />
    <glyph glyph-name="grave" unicode="`" horiz-adv-x="417" 
d="M250 604h-68l-89 170h107z" />
    <glyph glyph-name="a" unicode="a" horiz-adv-x="403" 
d="M369 0h-126v47q-28 -51 -91 -51q-66 0 -97 39q-33 42 -33 121q0 73 40.5 112.5t112.5 39.5h68v45q0 32 -10.5 44.5t-32.5 12.5q-44 0 -47 -51h-120q3 79 49.5 120.5t123.5 41.5q163 0 163 -156v-365zM243 179v41h-52q-51 0 -51 -59q0 -60 47 -60q29 0 44 20q12 18 12 58z
" />
    <glyph glyph-name="b" unicode="b" horiz-adv-x="406" 
d="M378 165q0 -74 -25 -119q-30 -52 -99 -52q-63 0 -93 48v-42h-125v712h125v-243q33 51 97 51q68 0 97 -53q23 -43 23 -115v-187zM252 177v157q0 42 -10.5 58t-34.5 16q-25 0 -36 -16.5t-11 -57.5v-157q0 -40 11 -57t36 -17q24 0 34.5 16t10.5 58z" />
    <glyph glyph-name="c" unicode="c" horiz-adv-x="386" 
d="M365 175q-2 -87 -45 -134.5t-122 -47.5t-124.5 47.5t-45.5 140.5v152q0 93 45.5 140.5t124.5 47.5q81 0 122.5 -42t44.5 -137h-123q-3 39 -12 53.5t-33 14.5q-22 0 -32.5 -17t-10.5 -61v-150q0 -45 10.5 -61.5t32.5 -16.5q23 0 33 16.5t12 54.5h123z" />
    <glyph glyph-name="d" unicode="d" horiz-adv-x="406" 
d="M370 0h-125v42q-30 -48 -93 -48q-70 0 -99 52q-25 47 -25 119v187q0 72 23 115q29 53 97 53q64 0 97 -51v243h125v-712zM246 177v157q0 41 -11 57.5t-36 16.5q-24 0 -34.5 -16t-10.5 -58v-157q0 -42 10.5 -58t34.5 -16q25 0 36 17t11 57z" />
    <glyph glyph-name="e" unicode="e" horiz-adv-x="395" 
d="M367 161q-6 -168 -167 -168q-81 0 -126.5 48t-45.5 142v148q0 95 45 142.5t126 47.5t124.5 -47t43.5 -141v-116h-218v-34q0 -46 12.5 -63.5t36.5 -17.5q25 0 36 13.5t12 45.5h121zM247 309v33q0 42 -11.5 58.5t-36.5 16.5t-37.5 -17t-12.5 -59v-32h98z" />
    <glyph glyph-name="f" unicode="f" horiz-adv-x="264" 
d="M245 417h-62v-417h-126v417h-44v97h44v58q0 140 139 140h49v-110h-28q-34 0 -34 -41v-47h62v-97z" />
    <glyph glyph-name="g" unicode="g" horiz-adv-x="406" 
d="M370 -17q0 -99 -44 -143t-129 -44q-79 0 -122.5 41t-46.5 117h120q2 -49 48 -49q27 0 38 20t11 68v68q-29 -47 -93 -47q-72 0 -99 51q-25 45 -25 119v168q0 72 23 115q29 53 97 53q64 0 97 -51v45h125v-531zM246 197v137q0 41 -11 57.5t-36 16.5q-24 0 -34.5 -16
t-10.5 -58v-137q0 -42 10.5 -58t34.5 -16q25 0 36 16.5t11 57.5z" />
    <glyph glyph-name="h" unicode="h" horiz-adv-x="408" 
d="M374 0h-126v353q0 28 -9 39t-31 11q-46 0 -46 -50v-353h-126v712h126v-242q31 50 96 50q56 0 86 -35.5t30 -98.5v-386z" />
    <glyph glyph-name="i" unicode="i" horiz-adv-x="207" 
d="M179 658q0 -32 -21.5 -54t-52.5 -22t-53 22t-22 52q0 31 22 53t53 22q30 0 52 -22t22 -51zM167 0h-127v514h127v-514z" />
    <glyph glyph-name="j" unicode="j" horiz-adv-x="209" 
d="M180 658q0 -32 -21.5 -54t-52.5 -22t-53 22t-22 52q0 31 22 53t53 22q30 0 52 -22t22 -51zM171 -51q0 -68 -36.5 -106t-107.5 -38h-42v110h24q35 0 35 43v556h127v-565z" />
    <glyph glyph-name="k" unicode="k" horiz-adv-x="398" 
d="M390 0h-131l-76 207l-1 -3l-5.5 -8.5t-6.5 -11l-8 -14l-8 -13.5v-157h-117v712h117v-372l100 174h127l-112 -187z" />
    <glyph glyph-name="l" unicode="l" horiz-adv-x="200" 
d="M163 0h-126v712h126v-712z" />
    <glyph glyph-name="m" unicode="m" horiz-adv-x="621" 
d="M586 0h-125v353q0 27 -9.5 38.5t-31.5 11.5q-46 0 -46 -50v-353h-125v353q0 27 -9.5 38.5t-31.5 11.5q-45 0 -45 -50v-353h-126v514h126v-44q29 50 96 50q68 0 96 -52q42 52 116 52q56 0 85.5 -35.5t29.5 -98.5v-386z" />
    <glyph glyph-name="n" unicode="n" horiz-adv-x="408" 
d="M374 0h-126v353q0 28 -9 39t-31 11q-46 0 -46 -50v-353h-126v514h126v-44q31 50 96 50q56 0 86 -35.5t30 -98.5v-386z" />
    <glyph glyph-name="o" unicode="o" horiz-adv-x="399" 
d="M371 175q0 -89 -45.5 -135.5t-126.5 -46.5q-80 0 -125.5 46.5t-45.5 135.5v164q0 89 45.5 135.5t125.5 46.5q81 0 126.5 -46.5t45.5 -135.5v-164zM245 177v159q0 41 -11.5 57.5t-34.5 16.5t-34 -16t-11 -58v-159q0 -41 11 -57t34 -16t34.5 16t11.5 57z" />
    <glyph glyph-name="p" unicode="p" horiz-adv-x="407" 
d="M379 165q0 -75 -25 -119q-29 -52 -99 -52q-63 0 -93 48v-240h-126v712h126v-45q33 51 97 51q69 0 96 -53q24 -45 24 -115v-187zM253 177v157q0 41 -11 57.5t-35 16.5t-35.5 -16.5t-11.5 -57.5v-157q0 -40 11.5 -57t35.5 -17t35 16.5t11 57.5z" />
    <glyph glyph-name="q" unicode="q" horiz-adv-x="407" 
d="M370 -198h-125v240q-30 -48 -93 -48q-70 0 -99 52q-25 47 -25 119v187q0 72 23 115q29 53 97 53q64 0 97 -51v45h125v-712zM246 177v157q0 41 -11 57.5t-36 16.5q-24 0 -34.5 -16t-10.5 -58v-157q0 -42 10.5 -58t34.5 -16q25 0 36 17t11 57z" />
    <glyph glyph-name="r" unicode="r" horiz-adv-x="302" 
d="M285 392q-36 4 -45 4q-42 0 -59.5 -17.5t-17.5 -58.5v-320h-126v514h126v-47q26 52 95 52q6 0 12.5 -0.5t10.5 -0.5h4v-126z" />
    <glyph glyph-name="s" unicode="s" horiz-adv-x="366" 
d="M346 161q0 -167 -162 -167q-76 0 -118.5 42.5t-44.5 119.5h118q2 -29 13 -41.5t33 -12.5q43 0 43 52q0 25 -8 35.5t-32 15.5l-45 10q-61 14 -90 49.5t-29 102.5q0 80 45 120t115 40q153 0 157 -152h-118q-1 26 -11 36t-30 10q-40 0 -40 -46q0 -24 9.5 -34t36.5 -16
l44 -10q62 -14 88 -49t26 -105z" />
    <glyph glyph-name="t" unicode="t" horiz-adv-x="266" 
d="M245 0h-49q-139 0 -139 140v277h-44v97h44v146h126v-146h62v-97h-62v-266q0 -41 34 -41h28v-110z" />
    <glyph glyph-name="u" unicode="u" horiz-adv-x="408" 
d="M371 0h-125v45q-30 -50 -96 -50q-57 0 -86.5 35t-29.5 98v386h126v-353q0 -27 9 -38t31 -11q46 0 46 49v353h125v-514z" />
    <glyph glyph-name="v" unicode="v" horiz-adv-x="369" 
d="M367 514l-128 -514h-109l-128 514h129l42 -221l12 -106l12 106l41 221h129z" />
    <glyph glyph-name="w" unicode="w" horiz-adv-x="549" 
d="M549 514l-103 -514h-112l-50 251l-9 69l-9 -69l-50 -251h-111l-103 514h129l40 -239l8 -87l9 87l44 239h87l44 -239l9 -87l8 87l39 239h130z" />
    <glyph glyph-name="x" unicode="x" horiz-adv-x="377" 
d="M372 0h-130l-42 119l-11 48l-12 -48l-42 -119h-130l116 263l-111 251h130l39 -104l10 -45l11 45l37 104h130l-110 -252z" />
    <glyph glyph-name="y" unicode="y" horiz-adv-x="366" 
d="M367 514l-144 -578q-16 -64 -46 -92q-36 -35 -126 -35h-22v115h16q28 0 40.5 11.5t19.5 39.5l16 64l-119 475h129l44 -235l10 -82l10 82l43 235h129z" />
    <glyph glyph-name="z" unicode="z" horiz-adv-x="349" 
d="M324 0h-298v101l155 298h-145v115h288v-100l-156 -299h156v-115z" />
    <glyph glyph-name="braceleft" unicode="{" horiz-adv-x="331" 
d="M306 -74h-60q-90 0 -125 52q-22 31 -22 108v134q0 43 -10 59q-13 19 -45 19h-21v116h21q32 0 45 19q10 16 10 58v135q0 76 22 108q35 52 125 52h60v-110h-31q-34 0 -44 -18q-6 -11 -6 -49v-154q0 -34 -13 -56t-26.5 -29.5t-33.5 -13.5q20 -6 33.5 -13.5t26.5 -30
t13 -55.5v-154q0 -38 6 -49q10 -18 44 -18h31v-110z" />
    <glyph glyph-name="bar" unicode="|" horiz-adv-x="266" 
d="M196 -74h-114v860h114v-860z" />
    <glyph glyph-name="braceright" unicode="}" horiz-adv-x="331" 
d="M308 298h-21q-32 0 -45 -19q-11 -15 -11 -59v-134q0 -45 -4 -66.5t-17 -41.5q-37 -52 -125 -52h-61v110h32q34 0 44 18q6 11 6 49v154q0 33 12.5 55.5t26 30t33.5 13.5q-20 6 -33.5 13.5t-26 29.5t-12.5 56v154q0 38 -6 49q-10 18 -44 18h-32v110h61q88 0 125 -52
q13 -20 17 -41.5t4 -66.5v-135q0 -43 11 -58q13 -19 45 -19h21v-116z" />
    <glyph glyph-name="asciitilde" unicode="~" 
d="M419 291q-27 -42 -58.5 -65t-79.5 -23q-33 0 -79 23q-5 3 -15 8l-15 7.5t-13 5t-16 2.5q-35 0 -67 -37l-79 68q27 41 58 64t79 23q34 0 80 -23q5 -3 15 -8l15 -7.5t13 -5t16 -2.5q35 0 66 38z" />
    <glyph glyph-name="nbspace" unicode="&#xa0;" horiz-adv-x="163" 
 />
    <glyph glyph-name="sterling" unicode="&#xa3;" 
d="M410 517h-126v8q0 42 -12.5 61t-39.5 19q-28 0 -40 -18.5t-12 -61.5v-134h117v-82h-117v-194h222v-115h-347v309h-47v82h47v139q0 190 178 190q83 0 130 -48t47 -143v-12z" />
    <glyph glyph-name="currency" unicode="&#xa4;" 
d="M402 188q0 -100 -49.5 -147.5t-127.5 -47.5t-127.5 47.5t-49.5 147.5v82h-46v72h46v34h-46v72h46v76q0 100 49.5 147.5t127.5 47.5t127.5 -47.5t49.5 -147.5v-7h-125v5q0 45 -12 64t-40 19t-39.5 -19t-11.5 -64v-74h163l-20 -72h-143v-34h135l-20 -72h-115v-81
q0 -45 11.5 -63.5t39.5 -18.5t40 18.5t12 63.5v7h125v-8z" />
    <glyph glyph-name="brokenbar" unicode="&#xa6;" horiz-adv-x="232" 
d="M178 436h-124v350h124v-350zM178 -74h-124v350h124v-350z" />
    <glyph glyph-name="section" unicode="&#xa7;" horiz-adv-x="531" 
d="M473 279q0 -95 -90 -154q81 -43 81 -138q0 -82 -55.5 -133t-144.5 -51q-88 0 -140.5 46.5t-56.5 131.5h125q6 -63 74 -63q33 0 53 17.5t20 45.5q0 51 -70 75l-62 21q-77 26 -111.5 69t-34.5 112q0 99 91 156q-76 43 -76 129q0 80 52.5 127.5t140.5 47.5q89 0 138 -43.5
t53 -128.5h-122q-3 32 -20 46.5t-51 14.5q-31 0 -50 -16t-19 -42q0 -45 67 -67l62 -20q75 -24 110.5 -68.5t35.5 -114.5zM348 267q0 42 -22 66.5t-59 24.5q-38 0 -59.5 -23.5t-21.5 -64.5q0 -42 21.5 -65.5t59.5 -23.5q37 0 59 23.5t22 62.5z" />
    <glyph glyph-name="copyright" unicode="&#xa9;" horiz-adv-x="800" 
d="M762 363q0 -155 -105 -262t-257 -107q-150 0 -256 106t-106 256t106 256t256 106q147 0 254.5 -105.5t107.5 -249.5zM675 351q0 124 -78 205t-197 81q-117 0 -196 -80.5t-79 -200.5t79 -200.5t196 -80.5q115 0 195 80t80 196zM539 212q-35 -30 -66 -41t-65 -11
q-83 0 -131.5 53t-48.5 143t49 143t131 53q36 0 65 -10q32 -12 66 -42l-56 -56q-38 32 -74 32q-96 0 -96 -124q0 -55 25 -85t71 -30q37 0 74 31z" />
    <glyph glyph-name="guillemotleft" unicode="&#xab;" horiz-adv-x="514" 
d="M475 37l-237 239l237 237v-149l-90 -88l90 -89v-150zM257 37l-237 239l237 237v-149l-89 -88l89 -89v-150z" />
    <glyph glyph-name="logicalnot" unicode="&#xac;" 
d="M393 94h-122v145h-249v122h371v-267z" />
    <glyph glyph-name="registered" unicode="&#xae;" horiz-adv-x="438" 
d="M408 533q0 -80 -54.5 -135.5t-133.5 -55.5q-78 0 -133 55t-55 133t55 133t133 55q76 0 132 -55t56 -130zM363 527q0 65 -41 107.5t-102 42.5t-102 -42.5t-41 -104.5t41 -104t102 -42q60 0 101.5 41.5t41.5 101.5zM304 430h-50l-36 78h-22v-78h-44v200h81q29 0 47.5 -17.5
t18.5 -45.5q0 -36 -36 -52zM255 568q0 10 -8 17.5t-19 7.5h-32v-51h32q12 0 19.5 7t7.5 19z" />
    <glyph glyph-name="degree" unicode="&#xb0;" horiz-adv-x="431" 
d="M385 560q0 -73 -49 -123t-120 -50q-70 0 -120 49.5t-50 120.5q0 70 50 119.5t120 49.5q68 0 118.5 -49.5t50.5 -116.5zM280 556q0 28 -19 47t-46 19t-45.5 -19t-18.5 -46q0 -28 19 -46.5t46 -18.5q26 0 45 18.5t19 45.5z" />
    <glyph glyph-name="plusminus" unicode="&#xb1;" 
d="M383 308h-117v-131h-115v131h-118v111h118v130h115v-130h117v-111zM383 0h-350v112h350v-112z" />
    <glyph glyph-name="paragraph" unicode="&#xb6;" horiz-adv-x="456" 
d="M414 -191h-94v803h-49v-803h-94v589q-59 0 -103.5 46t-44.5 110q0 75 49 116.5t131 41.5h205v-903z" />
    <glyph glyph-name="guillemotright" unicode="&#xbb;" horiz-adv-x="514" 
d="M494 276l-236 -239v150l89 89l-89 88v149zM276 276l-237 -239v150l91 89l-91 88v149z" />
    <glyph glyph-name="divide" unicode="&#xf7;" 
d="M295 494q0 -37 -25 -63t-62 -26q-36 0 -62 26t-26 62t26 61.5t62 25.5q35 0 61 -25.5t26 -60.5zM400 225h-384v122h384v-122zM295 80q0 -38 -25 -63.5t-62 -25.5q-36 0 -62 25.5t-26 62.5q0 36 26 61.5t62 25.5q35 0 61 -25.5t26 -60.5z" />
    <glyph glyph-name="florin" unicode="&#x192;" horiz-adv-x="344" 
d="M325 610h-39q-22 0 -33 -11.5t-14 -38.5l-18 -163h76v-82h-85l-58 -513h-126l58 513h-62v82h71l20 174q17 152 160 149l50 -1v-109z" />
    <glyph glyph-name="Delta" unicode="&#x394;" horiz-adv-x="635" 
d="M632 0h-629l260 712h109zM450 117l-130 384l-133 -384h263z" />
    <glyph glyph-name="mu" unicode="&#x3bc;" horiz-adv-x="408" 
d="M371 0h-125v45q-23 -44 -64 -44q-13 0 -25 7v-206h-123v712h126v-353q0 -27 9 -38t31 -11q46 0 46 49v353h125v-514z" />
    <glyph glyph-name="afii10023" unicode="&#x401;" horiz-adv-x="395" 
d="M365 819q0 -27 -19 -46.5t-46 -19.5q-26 0 -45 19.5t-19 45.5t19 45.5t45 19.5t45.5 -19t19.5 -45zM198 819q0 -27 -19 -46.5t-46 -19.5q-26 0 -45 19.5t-19 45.5t19 45.5t45 19.5t45.5 -19t19.5 -45zM375 0h-330v712h330v-121h-199v-171h168v-122h-168v-177h199v-121z
" />
    <glyph glyph-name="afii10051" unicode="&#x402;" horiz-adv-x="532" 
d="M496 -8q0 -69 -39.5 -110.5t-111.5 -41.5h-38v111h17q41 0 41 50v248q0 52 -16.5 73.5t-56.5 21.5q-26 0 -53 -12v-332h-131v591h-98v121h380v-121h-151v-147q35 16 87 16q74 0 122 -48.5t48 -149.5v-270z" />
    <glyph glyph-name="afii10052" unicode="&#x403;" horiz-adv-x="382" 
d="M308 908l-110 -164h-83l59 164h134zM370 591h-194v-591h-131v712h325v-121z" />
    <glyph glyph-name="afii10053" unicode="&#x404;" horiz-adv-x="439" 
d="M417 216q-4 -223 -190 -223q-192 0 -192 219v288q0 219 192 219q187 0 190 -221h-131q-1 56 -13.5 79.5t-45.5 23.5q-31 0 -47 -22t-16 -82v-79h136v-118h-136v-83q0 -60 16 -83t46 -23q31 0 45.5 23t15.5 82h130z" />
    <glyph glyph-name="afii10054" unicode="&#x405;" horiz-adv-x="425" 
d="M402 205q0 -212 -192 -212q-186 0 -192 204h127q2 -44 17 -63.5t46 -19.5q65 0 65 85q0 49 -19 71q-15 16 -52 26l-26 7q-45 12 -70 27t-44 41q-36 48 -36 154q0 95 48 144.5t139 49.5q90 0 134.5 -46.5t49.5 -149.5h-128q-2 43 -14.5 60.5t-41.5 17.5q-57 0 -57 -75
q0 -46 12 -63t54 -29l24 -7q83 -24 112 -56q44 -47 44 -166z" />
    <glyph glyph-name="afii10055" unicode="&#x406;" horiz-adv-x="231" 
d="M181 0h-131v712h131v-712z" />
    <glyph glyph-name="afii10056" unicode="&#x407;" horiz-adv-x="231" 
d="M264 819q0 -27 -19 -46.5t-46 -19.5q-26 0 -45 19.5t-19 45.5t19 45.5t45 19.5t45.5 -19t19.5 -45zM97 819q0 -27 -19 -46.5t-46 -19.5q-26 0 -45 19.5t-19 45.5t19 45.5t45 19.5t45.5 -19t19.5 -45zM181 0h-131v712h131v-712z" />
    <glyph glyph-name="afii10057" unicode="&#x408;" horiz-adv-x="405" 
d="M360 212q0 -218 -182 -218q-120 0 -175 97l108 68q28 -44 63 -44q31 0 43 24t12 84v489h131v-500z" />
    <glyph glyph-name="afii10058" unicode="&#x409;" horiz-adv-x="728" 
d="M709 208q0 -208 -191 -208h-198v591h-91l-8 -328q-3 -128 -46 -195.5t-141 -67.5h-37v122q87 0 89 144l11 446h355v-275h66q191 0 191 -208v-21zM577 218v5q0 52 -16 73.5t-56 21.5h-53v-197h53q40 0 56 22.5t16 74.5z" />
    <glyph glyph-name="afii10059" unicode="&#x40a;" horiz-adv-x="707" 
d="M687 208q0 -208 -191 -208h-197v314h-120v-314h-131v712h131v-275h120v275h132v-275h65q191 0 191 -208v-21zM556 218v5q0 52 -16.5 73.5t-56.5 21.5h-52v-197h52q41 0 57 22t16 75z" />
    <glyph glyph-name="afii10060" unicode="&#x40b;" horiz-adv-x="532" 
d="M496 0h-131v249q0 52 -16.5 73.5t-56.5 21.5q-26 0 -53 -12v-332h-131v591h-98v121h380v-121h-151v-147q35 16 87 16q74 0 122 -48.5t48 -149.5v-262z" />
    <glyph glyph-name="afii10061" unicode="&#x40c;" horiz-adv-x="465" 
d="M360 908l-110 -164h-83l60 164h133zM465 0h-138l-109 294l-39 -71v0v0v0v-1v0v0v-1v0v-1v0v-1v0v-1v-1v-1v-1v-1v-1v-1v-1v-1v-1v-1v-1v-1v-1v-1v-1v-1v-1v-1v-1v-1v-1v-1v-1v-1v-1v-1v-1v-1v-1v-1v-1v-1v-1v-1v-1v-1v-1v-1v-1v-2v-1v-1v-1v-1v-1v-1v-1v-2v-1v-1v-1v-1
v-2v-1v-1v-1v-2v-1v-1v-1v-2v-1v-1v-2v-1v-1v-2v-1v-1v-2v-1v-1v-2v-1v-1v-2v-1v-2v-1v-1v-2v-1v-2v-1v-2v-1v-2v-1v-2v-1v-2v-1v-2v-1v-2v-1v-2v-1v-2v-1v-2v-1v-2v-2v-1v-2v-1v-2v-2v-1v-2v-1v-2v-2v-1v-2v-2v-1v-2v-2v-1v-2v-2v-2v-1v-2v-2v-1v-2v-2v-2v-1v-2v-2v-2v-1
v-2v-2v-2v-2v-1v-2v-2v-2v-2v-1v-2v-2v-2v-2v-2v-9h-131v712h131v-272l137 272h136l-145 -272z" />
    <glyph glyph-name="afii10062" unicode="&#x40e;" horiz-adv-x="447" 
d="M360 884q-4 -63 -41.5 -96.5t-97.5 -33.5q-61 0 -97.5 32.5t-41.5 97.5h81q3 -23 18 -38.5t40 -15.5q52 0 58 54h81zM445 712l-181 -584q-19 -63 -51 -92q-39 -36 -128 -36h-36v121h23q53 0 67 50l15 51l-153 490h141l65 -232q11 -39 16 -86h3q2 31 25 115l56 203h138z
" />
    <glyph glyph-name="afii10145" unicode="&#x40f;" horiz-adv-x="478" 
d="M431 0h-132v-144h-120v144h-131v712h131v-591h120v591h132v-712z" />
    <glyph glyph-name="afii10017" unicode="&#x410;" horiz-adv-x="456" 
d="M453 0h-130l-24 115h-143l-23 -115h-129l165 712h116zM277 223l-37 177l-14 78l-13 -78q-35 -177 -36 -177h100z" />
    <glyph glyph-name="afii10018" unicode="&#x411;" horiz-adv-x="461" 
d="M438 210q0 -210 -191 -210h-199v712h353v-120h-222v-157h68q191 0 191 -208v-17zM307 214v8q0 53 -16.5 74.5t-56.5 21.5h-55v-200h55q40 0 56.5 22t16.5 74z" />
    <glyph glyph-name="afii10019" unicode="&#x412;" horiz-adv-x="461" 
d="M439 202q0 -105 -52 -153.5t-142 -48.5h-197v712h192q98 0 144.5 -47.5t46.5 -147.5v-14q0 -55 -22 -89.5t-53 -48.5q33 -12 58 -48.5t25 -100.5v-14zM300 507q0 44 -16 65t-54 21h-51v-171h53q38 0 53 21.5t15 63.5zM308 212q0 47 -15.5 69.5t-56.5 22.5h-57v-185h57
q41 0 56.5 23t15.5 70z" />
    <glyph glyph-name="afii10020" unicode="&#x413;" horiz-adv-x="382" 
d="M370 591h-194v-591h-131v712h325v-121z" />
    <glyph glyph-name="afii10021" unicode="&#x414;" horiz-adv-x="512" 
d="M504 -144h-119v144h-260v-144h-119v264h40q34 96 46 201.5t12 297.5v93h347v-592h53v-264zM321 120v471h-90v-80q0 -146 -12 -225.5t-42 -165.5h144z" />
    <glyph glyph-name="afii10022" unicode="&#x415;" horiz-adv-x="395" 
d="M375 0h-330v712h330v-121h-199v-172h168v-120h-168v-178h199v-121z" />
    <glyph glyph-name="afii10024" unicode="&#x416;" horiz-adv-x="679" 
d="M680 0h-137l-102 292l-37 -69v-223h-129v223l-37 69l-102 -292h-137l149 431l-136 281h137l91 -205q31 -68 33 -88h2v293h129v-294h2q1 6 14 40.5t16 41.5l94 212h137l-136 -281z" />
    <glyph glyph-name="afii10025" unicode="&#x417;" horiz-adv-x="426" 
d="M403 192q0 -199 -194 -199q-100 0 -148 61q-41 51 -43 147h127q0 -40 16.5 -63.5t47.5 -23.5q35 0 49.5 20.5t14.5 69.5v18q0 46 -15.5 66t-51.5 20h-48v111h48q33 0 47 19.5t14 62.5v23q0 41 -14 59t-43 18q-24 0 -37.5 -14.5t-16.5 -30.5t-3 -41h-127q0 204 181 204
q89 0 139 -46t50 -142v-30q0 -50 -23 -84.5t-59 -48.5q39 -12 64 -48.5t25 -96.5v-31z" />
    <glyph glyph-name="afii10026" unicode="&#x418;" horiz-adv-x="485" 
d="M437 0h-130v326q0 41 7 97h-2l-152 -423h-112v712h130v-318q0 -70 -6 -106h2l151 424h112v-712z" />
    <glyph glyph-name="afii10027" unicode="&#x419;" horiz-adv-x="485" 
d="M388 884q-4 -62 -42 -96t-97 -34q-61 0 -97.5 32.5t-41.5 97.5h81q3 -23 18 -38.5t40 -15.5q52 0 58 54h81zM437 0h-130v326q0 41 7 97h-2l-152 -423h-112v712h130v-318q0 -70 -6 -106h2l151 424h112v-712z" />
    <glyph glyph-name="afii10028" unicode="&#x41a;" horiz-adv-x="465" 
d="M465 0h-138l-109 295l-39 -72v-223h-131v712h131v-277l137 277h136l-145 -273z" />
    <glyph glyph-name="afii10029" unicode="&#x41b;" horiz-adv-x="500" 
d="M452 0h-132v591h-91l-8 -328q-3 -128 -46 -195.5t-141 -67.5h-37v122q87 0 89 144l11 446h355v-712z" />
    <glyph glyph-name="afii10030" unicode="&#x41c;" horiz-adv-x="579" 
d="M531 0h-123v343l2 73l-14 -61l-66 -218h-80l-67 218l-14 61l2 -73v-343h-123v712h123l119 -389l119 389h122v-712z" />
    <glyph glyph-name="afii10031" unicode="&#x41d;" horiz-adv-x="479" 
d="M430 0h-131v298h-120v-298h-131v712h131v-291h120v291h131v-712z" />
    <glyph glyph-name="afii10032" unicode="&#x41e;" horiz-adv-x="453" 
d="M418 212q0 -219 -192 -219t-192 219v288q0 219 192 219t192 -219v-288zM287 216v281q0 59 -15.5 80t-45.5 21t-45 -21t-15 -80v-281q0 -59 15.5 -80.5t44.5 -21.5q30 0 45.5 21.5t15.5 80.5z" />
    <glyph glyph-name="afii10033" unicode="&#x41f;" horiz-adv-x="478" 
d="M431 0h-132v591h-120v-591h-131v712h383v-712z" />
    <glyph glyph-name="afii10034" unicode="&#x420;" horiz-adv-x="459" 
d="M436 477q0 -209 -191 -209h-66v-268h-131v712h197q191 0 191 -210v-25zM305 483v13q0 52 -16.5 74.5t-56.5 22.5h-53v-206h53q40 0 56.5 21.5t16.5 74.5z" />
    <glyph glyph-name="afii10035" unicode="&#x421;" horiz-adv-x="439" 
d="M416 219q-4 -226 -190 -226q-192 0 -192 219v288q0 219 192 219q89 0 139 -51.5t51 -173.5h-133q-1 59 -13 81.5t-44 22.5q-30 0 -45 -21t-15 -80v-281q0 -59 15.5 -80.5t43.5 -21.5q30 0 43.5 22.5t14.5 82.5h133z" />
    <glyph glyph-name="afii10036" unicode="&#x422;" horiz-adv-x="400" 
d="M389 591h-123v-591h-131v591h-125v121h379v-121z" />
    <glyph glyph-name="afii10037" unicode="&#x423;" horiz-adv-x="447" 
d="M445 712l-181 -584q-19 -63 -51 -92q-39 -36 -128 -36h-36v121h23q53 0 67 50l15 51l-153 490h141l65 -232q11 -39 16 -86h3q2 31 25 115l56 203h138z" />
    <glyph glyph-name="afii10038" unicode="&#x424;" horiz-adv-x="647" 
d="M615 277q0 -122 -50.5 -168t-141.5 -46h-34v-63h-131v63h-35q-91 0 -141 46t-50 168v161q0 122 50 167.5t141 45.5h35v61h131v-61h34q44 0 76 -9t59.5 -31.5t42 -66t14.5 -106.5v-161zM483 285v145q0 56 -16.5 77.5t-47.5 21.5h-32v-345h31q31 0 48 22t17 79zM260 184
v345h-32q-31 0 -47.5 -21.5t-16.5 -77.5v-145q0 -57 17 -79t48 -22h31z" />
    <glyph glyph-name="afii10039" unicode="&#x425;" horiz-adv-x="442" 
d="M441 0h-137l-67 181l-16 57l-17 -57l-67 -181h-136l149 367l-140 345h137l58 -159l16 -55l17 55l58 159h136l-141 -345z" />
    <glyph glyph-name="afii10040" unicode="&#x426;" horiz-adv-x="493" 
d="M484 -144h-119v144h-317v712h131v-591h120v591h132v-591h53v-265z" />
    <glyph glyph-name="afii10041" unicode="&#x427;" horiz-adv-x="472" 
d="M424 0h-131v274q-35 -16 -87 -16q-74 0 -122 48.5t-48 149.5v256h131v-243q0 -52 16.5 -73.5t56.5 -21.5q26 0 53 12v326h131v-712z" />
    <glyph glyph-name="afii10042" unicode="&#x428;" horiz-adv-x="705" 
d="M657 0h-609v712h131v-591h108v591h131v-591h107v591h132v-712z" />
    <glyph glyph-name="afii10043" unicode="&#x429;" horiz-adv-x="719" 
d="M710 -144h-119v144h-543v712h131v-591h108v591h131v-591h107v591h132v-591h53v-265z" />
    <glyph glyph-name="afii10044" unicode="&#x42a;" horiz-adv-x="536" 
d="M517 208q0 -208 -191 -208h-198v591h-118v121h250v-264h66q191 0 191 -208v-32zM385 218v16q0 52 -16 73.5t-56 21.5h-53v-208h53q40 0 56 22.5t16 74.5z" />
    <glyph glyph-name="afii10045" unicode="&#x42b;" horiz-adv-x="676" 
d="M628 0h-132v712h132v-712zM436 208q0 -208 -191 -208h-197v712h131v-264h66q191 0 191 -208v-32zM305 218v16q0 52 -16.5 73.5t-56.5 21.5h-53v-208h53q40 0 56.5 22.5t16.5 74.5z" />
    <glyph glyph-name="afii10046" unicode="&#x42c;" horiz-adv-x="455" 
d="M436 208q0 -208 -191 -208h-197v712h131v-264h66q191 0 191 -208v-32zM305 218v16q0 52 -16.5 73.5t-56.5 21.5h-53v-208h53q40 0 56.5 22.5t16.5 74.5z" />
    <glyph glyph-name="afii10047" unicode="&#x42d;" horiz-adv-x="439" 
d="M405 212q0 -219 -192 -219q-186 0 -189 223h129q1 -59 15.5 -82t45.5 -23q30 0 46 23t16 83v83h-136v118h136v79q0 60 -16 82t-47 22q-33 0 -45.5 -23.5t-13.5 -79.5h-130q1 221 189 221q192 0 192 -219v-288z" />
    <glyph glyph-name="afii10048" unicode="&#x42e;" horiz-adv-x="664" 
d="M630 212q0 -219 -192 -219q-193 0 -193 219v86h-66v-298h-131v712h131v-291h66v79q0 219 193 219q192 0 192 -219v-288zM498 217v280q0 59 -15.5 80t-44.5 21q-30 0 -45 -21t-15 -80v-280q0 -60 15.5 -81.5t44.5 -21.5t44.5 21.5t15.5 81.5z" />
    <glyph glyph-name="afii10049" unicode="&#x42f;" horiz-adv-x="471" 
d="M423 0h-130v271h-43l-91 -271h-137l108 298q-94 42 -94 189v23q0 202 184 202h203v-712zM293 388v206h-57q-36 0 -51.5 -22t-15.5 -70v-22q0 -92 67 -92h57z" />
    <glyph glyph-name="afii10065" unicode="&#x430;" horiz-adv-x="403" 
d="M369 0h-126v47q-28 -51 -91 -51q-66 0 -97 39q-33 42 -33 121q0 73 40.5 112.5t112.5 39.5h68v45q0 32 -10.5 44.5t-32.5 12.5q-44 0 -47 -51h-120q3 79 49.5 120.5t123.5 41.5q163 0 163 -156v-365zM243 179v41h-52q-51 0 -51 -59q0 -60 47 -60q29 0 44 20q12 18 12 58z
" />
    <glyph glyph-name="afii10066" unicode="&#x431;" horiz-adv-x="400" 
d="M373 175q0 -89 -45.5 -135.5t-126.5 -46.5q-80 0 -125.5 46.5t-45.5 135.5v188q0 124 8 186t41 104q14 17 33.5 28.5t49.5 17t45 7.5t54 3t42 1l49 2v-115l-29 -2q-10 -1 -44.5 -1.5t-56 -2t-48 -11t-40.5 -26.5q-24 -30 -24 -96h2q9 18 40.5 33t67.5 15
q66 0 109.5 -47.5t43.5 -134.5v-149zM247 177v151q0 42 -11 57.5t-35 15.5q-23 0 -34 -16t-11 -57v-151q0 -41 11 -57t34 -16q24 0 35 16t11 57z" />
    <glyph glyph-name="afii10067" unicode="&#x432;" horiz-adv-x="403" 
d="M377 149q0 -149 -141 -149h-200v514h196q71 0 105 -34.5t34 -106.5q0 -41 -11 -66t-43 -44q60 -25 60 -114zM245 364q0 54 -46 54h-40v-108h42q24 0 34 13t10 41zM251 156q0 31 -11 44.5t-38 13.5h-43v-118h43q49 0 49 60z" />
    <glyph glyph-name="afii10068" unicode="&#x433;" horiz-adv-x="320" 
d="M314 405h-152v-405h-126v514h278v-109z" />
    <glyph glyph-name="afii10069" unicode="&#x434;" horiz-adv-x="448" 
d="M444 -121h-112v121h-219v-121h-112v231h40q23 67 31 141.5t8 211.5v51h317v-404h47v-231zM271 110v295h-66v-47q0 -90 -8 -141t-28 -107h102z" />
    <glyph glyph-name="afii10070" unicode="&#x435;" horiz-adv-x="395" 
d="M367 161q-6 -168 -167 -168q-81 0 -126.5 48t-45.5 142v148q0 95 45 142.5t126 47.5t124.5 -47t43.5 -141v-116h-218v-34q0 -46 12.5 -63.5t36.5 -17.5q25 0 36 13.5t12 45.5h121zM247 309v33q0 42 -11.5 58.5t-36.5 16.5t-37.5 -17t-12.5 -59v-32h98z" />
    <glyph glyph-name="afii10072" unicode="&#x436;" horiz-adv-x="592" 
d="M585 0h-132l-73 184l-24 -41v-143h-120v143l-24 41l-74 -184h-131l123 298l-115 216h129l92 -179v179h120v-179l92 179h129l-115 -216z" />
    <glyph glyph-name="afii10073" unicode="&#x437;" horiz-adv-x="374" 
d="M347 151q0 -158 -167 -158q-90 0 -131 57q-30 40 -30 109h119q0 -57 44 -57t44 56v11q0 48 -56 48h-40v90h40q52 0 52 55q0 54 -41 54q-40 0 -40 -51h-116q0 56 23 91q40 65 132 65q162 0 162 -150q0 -78 -60 -105q65 -25 65 -115z" />
    <glyph glyph-name="afii10074" unicode="&#x438;" horiz-adv-x="417" 
d="M381 0h-124v183q0 13 2.5 55t2.5 46h-2l-115 -284h-109v514h124v-180q0 -49 -5 -104h2l115 284h109v-514z" />
    <glyph glyph-name="afii10075" unicode="&#x439;" horiz-adv-x="417" 
d="M345 702q-5 -62 -42 -95.5t-95 -33.5t-94.5 32.5t-40.5 96.5h81q2 -23 16.5 -38t38.5 -15t38 15t17 38h81zM381 0h-124v183q0 13 2.5 55t2.5 46h-2l-115 -284h-109v514h124v-180q0 -49 -5 -104h2l115 284h109v-514z" />
    <glyph glyph-name="afii10076" unicode="&#x43a;" horiz-adv-x="399" 
d="M396 0h-132l-77 181l-26 -49v-132h-125v514h125v-183l100 183h127l-122 -212z" />
    <glyph glyph-name="afii10077" unicode="&#x43b;" horiz-adv-x="417" 
d="M381 0h-125v416h-69l-4 -224q-2 -91 -34.5 -141.5t-108.5 -50.5h-40v104q38 0 49.5 23.5t12.5 67.5l7 319h312v-514z" />
    <glyph glyph-name="afii10078" unicode="&#x43c;" horiz-adv-x="506" 
d="M470 0h-121v207q0 36 3 78h-3l-62 -186h-67l-64 186h-3q5 -22 5 -78v-207h-122v514h124l94 -275l92 275h124v-514z" />
    <glyph glyph-name="afii10079" unicode="&#x43d;" horiz-adv-x="410" 
d="M374 0h-126v205h-86v-205h-126v514h126v-199h86v199h126v-514z" />
    <glyph glyph-name="afii10080" unicode="&#x43e;" horiz-adv-x="400" 
d="M371 175q0 -89 -45.5 -135.5t-126.5 -46.5q-80 0 -125.5 46.5t-45.5 135.5v164q0 89 45.5 135.5t125.5 46.5q81 0 126.5 -46.5t45.5 -135.5v-164zM245 177v159q0 41 -11.5 57.5t-34.5 16.5t-34 -16t-11 -58v-159q0 -41 11 -57t34 -16t34.5 16t11.5 57z" />
    <glyph glyph-name="afii10081" unicode="&#x43f;" horiz-adv-x="410" 
d="M374 0h-126v405h-86v-405h-126v514h338v-514z" />
    <glyph glyph-name="afii10082" unicode="&#x440;" horiz-adv-x="407" 
d="M379 165q0 -75 -25 -119q-29 -52 -99 -52q-63 0 -93 48v-240h-126v712h126v-45q33 51 97 51q69 0 96 -53q24 -45 24 -115v-187zM253 177v157q0 41 -11 57.5t-35 16.5t-35.5 -16.5t-11.5 -57.5v-157q0 -40 11.5 -57t35.5 -17t35 16.5t11 57.5z" />
    <glyph glyph-name="afii10083" unicode="&#x441;" horiz-adv-x="386" 
d="M365 175q-2 -87 -45 -134.5t-122 -47.5t-124.5 47.5t-45.5 140.5v152q0 93 45.5 140.5t124.5 47.5q81 0 122.5 -42t44.5 -137h-123q-3 39 -12 53.5t-33 14.5q-22 0 -32.5 -17t-10.5 -61v-150q0 -45 10.5 -61.5t32.5 -16.5q23 0 33 16.5t12 54.5h123z" />
    <glyph glyph-name="afii10084" unicode="&#x442;" horiz-adv-x="356" 
d="M349 405h-108v-405h-126v405h-108v109h342v-109z" />
    <glyph glyph-name="afii10085" unicode="&#x443;" horiz-adv-x="366" 
d="M367 514l-144 -578q-16 -64 -46 -92q-36 -35 -126 -35h-22v115h16q28 0 40.5 11.5t19.5 39.5l16 64l-119 475h129l44 -235l10 -82l10 82l43 235h129z" />
    <glyph glyph-name="afii10086" unicode="&#x444;" horiz-adv-x="591" 
d="M563 197q0 -53 -19.5 -93.5t-51 -62t-65 -32t-69.5 -11.5v-196h-125v196q-36 1 -69.5 11.5t-65 32t-51 62t-19.5 93.5v116q0 61 17.5 103t49 62.5t64 28.5t74.5 9v196h125v-196q42 -1 74.5 -9t64 -28.5t49 -62.5t17.5 -103v-116zM437 187v127q0 54 -16.5 72t-63.5 22
v-304q80 7 80 83zM234 104v304q-47 -4 -63.5 -22t-16.5 -72v-127q0 -76 80 -83z" />
    <glyph glyph-name="afii10087" unicode="&#x445;" horiz-adv-x="377" 
d="M372 0h-130l-42 119l-11 48l-12 -48l-42 -119h-130l116 263l-111 251h130l39 -104l10 -45l11 45l37 104h130l-110 -252z" />
    <glyph glyph-name="afii10088" unicode="&#x446;" horiz-adv-x="427" 
d="M423 -121h-112v121h-275v514h126v-404h86v404h126v-404h49v-231z" />
    <glyph glyph-name="afii10089" unicode="&#x447;" horiz-adv-x="390" 
d="M354 0h-126v187q-8 -6 -29 -12t-36 -6q-137 0 -137 153v192h125v-169q0 -34 10.5 -47t35.5 -13q24 0 31 10v219h126v-514z" />
    <glyph glyph-name="afii10090" unicode="&#x448;" horiz-adv-x="603" 
d="M567 0h-531v514h126v-404h77v404h126v-404h76v404h126v-514z" />
    <glyph glyph-name="afii10091" unicode="&#x449;" horiz-adv-x="621" 
d="M617 -121h-112v121h-469v514h126v-404h77v404h126v-404h76v404h126v-404h50v-231z" />
    <glyph glyph-name="afii10092" unicode="&#x44a;" horiz-adv-x="468" 
d="M452 156q0 -156 -151 -156h-188v405h-106v109h232v-181h62q151 0 151 -156v-21zM325 157v21q0 31 -12 42t-36 11h-41v-128h41q23 0 35.5 11.5t12.5 42.5z" />
    <glyph glyph-name="afii10093" unicode="&#x44b;" horiz-adv-x="583" 
d="M547 0h-126v514h126v-514zM375 156q0 -156 -151 -156h-188v514h126v-181h62q151 0 151 -156v-21zM249 157v21q0 31 -12.5 42t-36.5 11h-41v-128h41q24 0 36.5 11.5t12.5 42.5z" />
    <glyph glyph-name="afii10094" unicode="&#x44c;" horiz-adv-x="391" 
d="M375 156q0 -156 -151 -156h-188v514h126v-181h62q151 0 151 -156v-21zM249 157v21q0 31 -12.5 42t-36.5 11h-41v-128h41q24 0 36.5 11.5t12.5 42.5z" />
    <glyph glyph-name="afii10095" unicode="&#x44d;" horiz-adv-x="387" 
d="M359 181q0 -93 -45.5 -140.5t-124.5 -47.5q-75 0 -117.5 43t-49.5 121h125q0 -60 44 -60q22 0 33.5 17t11.5 61v43h-103v86h103v35q0 75 -47 75q-39 0 -41 -49h-125q7 82 48.5 119t117.5 37q79 0 124.5 -47.5t45.5 -140.5v-152z" />
    <glyph glyph-name="afii10096" unicode="&#x44e;" horiz-adv-x="587" 
d="M559 175q0 -89 -45.5 -135.5t-126.5 -46.5q-80 0 -125.5 46.5t-45.5 135.5v30h-54v-205h-126v514h126v-199h54v24q0 89 45.5 135.5t125.5 46.5q81 0 126.5 -46.5t45.5 -135.5v-164zM433 177v160q0 41 -11.5 57t-34.5 16t-34 -16t-11 -57v-160q0 -41 11 -57t34 -16
t34.5 16t11.5 57z" />
    <glyph glyph-name="afii10097" unicode="&#x44f;" horiz-adv-x="406" 
d="M370 0h-126v186h-28l-66 -186h-131l78 208q-69 36 -69 142q0 164 146 164h196v-514zM247 282v135h-48q-49 0 -49 -64q0 -33 9.5 -52t39.5 -19h48z" />
    <glyph glyph-name="afii10071" unicode="&#x451;" horiz-adv-x="395" 
d="M349 644q0 -28 -18.5 -47t-45.5 -19t-46 19.5t-19 45.5t19 45t46 19q26 0 45 -19t19 -44zM182 644q0 -28 -18.5 -47t-45.5 -19t-46 19.5t-19 45.5t19 45t46 19q26 0 45 -19t19 -44zM367 161q-6 -168 -167 -168q-81 0 -126.5 48t-45.5 142v148q0 95 45 142.5t126 47.5
t124.5 -47t43.5 -141v-116h-218v-34q0 -46 12.5 -63.5t36.5 -17.5q25 0 36 13.5t12 45.5h121zM247 309v33q0 42 -11.5 58.5t-36.5 16.5t-37.5 -17t-12.5 -59v-32h98z" />
    <glyph glyph-name="afii10099" unicode="&#x452;" horiz-adv-x="408" 
d="M374 -13q0 -69 -36 -106.5t-107 -37.5h-41v110h24q34 0 34 43v249q0 27 -9.5 38t-30.5 11q-46 0 -46 -49v-245h-126v471h-23v98h23v143h126v-143h148v-98h-148v-109q31 50 96 50q57 0 86.5 -35.5t29.5 -98.5v-291z" />
    <glyph glyph-name="afii10100" unicode="&#x453;" horiz-adv-x="320" 
d="M293 732l-110 -164h-83l59 164h134zM314 405h-152v-405h-126v514h278v-109z" />
    <glyph glyph-name="afii10101" unicode="&#x454;" horiz-adv-x="387" 
d="M365 157q-7 -78 -49.5 -121t-117.5 -43q-79 0 -124.5 47.5t-45.5 140.5v152q0 93 45.5 140.5t124.5 47.5q76 0 117.5 -37t48.5 -119h-124q-3 49 -42 49q-47 0 -47 -75v-35h103v-86h-103v-43q0 -44 11.5 -61t33.5 -17q44 0 45 60h124z" />
    <glyph glyph-name="afii10102" unicode="&#x455;" horiz-adv-x="366" 
d="M346 161q0 -167 -162 -167q-76 0 -118.5 42.5t-44.5 119.5h118q2 -29 13 -41.5t33 -12.5q43 0 43 52q0 25 -8 35.5t-32 15.5l-45 10q-61 14 -90 49.5t-29 102.5q0 80 45 120t115 40q153 0 157 -152h-118q-1 26 -11 36t-30 10q-40 0 -40 -46q0 -24 9.5 -34t36.5 -16
l44 -10q62 -14 88 -49t26 -105z" />
    <glyph glyph-name="afii10103" unicode="&#x456;" horiz-adv-x="207" 
d="M179 658q0 -32 -21.5 -54t-52.5 -22t-53 22t-22 52q0 31 22 53t53 22q30 0 52 -22t22 -51zM167 0h-127v514h127v-514z" />
    <glyph glyph-name="afii10104" unicode="&#x457;" horiz-adv-x="207" 
d="M251 654q0 -28 -18.5 -47t-45.5 -19t-46 19.5t-19 45.5t19 45t46 19q26 0 45 -19t19 -44zM84 654q0 -28 -18.5 -47t-45.5 -19t-46 19.5t-19 45.5t19 45t46 19q26 0 45 -19t19 -44zM167 0h-127v514h127v-514z" />
    <glyph glyph-name="afii10105" unicode="&#x458;" horiz-adv-x="209" 
d="M180 658q0 -32 -21.5 -54t-52.5 -22t-53 22t-22 52q0 31 22 53t53 22q30 0 52 -22t22 -51zM171 -51q0 -68 -36.5 -106t-107.5 -38h-42v110h24q35 0 35 43v556h127v-565z" />
    <glyph glyph-name="afii10106" unicode="&#x459;" horiz-adv-x="610" 
d="M594 156q0 -156 -151 -156h-187v416h-69l-4 -224q-2 -91 -34.5 -141.5t-108.5 -50.5h-40v104q38 0 49.5 23.5t12.5 67.5l7 319h312v-184h62q151 0 151 -156v-18zM467 157v18q0 31 -12 42t-36 11h-41v-125h41q23 0 35.5 11.5t12.5 42.5z" />
    <glyph glyph-name="afii10107" unicode="&#x45a;" horiz-adv-x="592" 
d="M587 156q0 -156 -151 -156h-188v210h-86v-210h-126v514h126v-194h86v194h126v-194h62q151 0 151 -156v-8zM460 157v8q0 31 -12 42t-36 11h-41v-115h41q23 0 35.5 11.5t12.5 42.5z" />
    <glyph glyph-name="afii10108" unicode="&#x45b;" horiz-adv-x="408" 
d="M374 0h-126v245q0 27 -9.5 38t-30.5 11q-46 0 -46 -49v-245h-126v471h-23v98h23v143h126v-143h148v-98h-148v-109q31 50 96 50q57 0 86.5 -35.5t29.5 -98.5v-278z" />
    <glyph glyph-name="afii10109" unicode="&#x45c;" horiz-adv-x="399" 
d="M314 732l-110 -164h-83l60 164h133zM396 0h-132l-77 181l-26 -49v-132h-125v514h125v-183l100 183h127l-122 -212z" />
    <glyph glyph-name="afii10110" unicode="&#x45e;" horiz-adv-x="366" 
d="M320 702q-4 -62 -41 -95.5t-95 -33.5q-59 0 -95 32.5t-41 96.5h81q3 -23 17 -38t38 -15t38.5 15t16.5 38h81zM367 514l-144 -578q-16 -64 -45 -92q-38 -35 -127 -35h-22v116h16q28 0 41 11.5t20 39.5l15 63l-119 475h130l43 -235l10 -81l10 81l43 235h129z" />
    <glyph glyph-name="afii10193" unicode="&#x45f;" horiz-adv-x="410" 
d="M374 0h-113v-121h-112v121h-113v514h126v-404h86v404h126v-514z" />
    <glyph glyph-name="afii10050" unicode="&#x490;" horiz-adv-x="382" 
d="M370 591h-194v-591h-131v712h206v144h119v-265z" />
    <glyph glyph-name="afii10098" unicode="&#x491;" horiz-adv-x="320" 
d="M314 405h-152v-405h-126v514h166v122h112v-231z" />
    <glyph glyph-name="endash" unicode="&#x2013;" horiz-adv-x="500" 
d="M500 228h-500v112h500v-112z" />
    <glyph glyph-name="emdash" unicode="&#x2014;" horiz-adv-x="1000" 
d="M1000 228h-1000v112h1000v-112z" />
    <glyph glyph-name="quoteleft" unicode="&#x2018;" horiz-adv-x="213" 
d="M189 712l-45 -220h-118l74 220h89z" />
    <glyph glyph-name="quoteright" unicode="&#x2019;" horiz-adv-x="213" 
d="M182 712l-74 -220h-88l44 220h118z" />
    <glyph glyph-name="quotesinglbase" unicode="&#x201a;" horiz-adv-x="213" 
d="M189 116l-74 -220h-89l44 220h119z" />
    <glyph glyph-name="quotedblleft" unicode="&#x201c;" horiz-adv-x="379" 
d="M357 712l-45 -220h-118l74 220h89zM184 712l-44 -220h-118l74 220h88z" />
    <glyph glyph-name="quotedblright" unicode="&#x201d;" horiz-adv-x="379" 
d="M351 712l-74 -220h-89l44 220h119zM179 712l-75 -220h-88l44 220h119z" />
    <glyph glyph-name="quotedblbase" unicode="&#x201e;" horiz-adv-x="379" 
d="M357 116l-74 -220h-88l44 220h118zM185 116l-74 -220h-88l44 220h118z" />
    <glyph glyph-name="dagger" unicode="&#x2020;" horiz-adv-x="465" 
d="M422 410h-125v-410h-130v410h-124v117h124v185h130v-185h125v-117z" />
    <glyph glyph-name="daggerdbl" unicode="&#x2021;" horiz-adv-x="465" 
d="M422 -6h-125v-185h-130v185h-124v117h124v299h-124v117h124v185h130v-185h125v-117h-125v-299h125v-117z" />
    <glyph glyph-name="bullet" unicode="&#x2022;" horiz-adv-x="302" 
d="M266 358q0 -47 -34 -81t-82 -34q-47 0 -80.5 34t-33.5 81q0 48 33.5 81.5t80.5 33.5q48 0 82 -33.5t34 -81.5z" />
    <glyph glyph-name="ellipsis" unicode="&#x2026;" horiz-adv-x="719" 
d="M682 73q0 -34 -23 -57t-56 -23q-32 0 -55 23t-23 55t23 55.5t55 23.5t55.5 -23t23.5 -54zM439 73q0 -34 -23 -57t-56 -23q-32 0 -55 23t-23 55t23 55.5t55 23.5t55.5 -23t23.5 -54zM194 73q0 -34 -22.5 -57t-55.5 -23q-32 0 -55.5 23t-23.5 55t23.5 55.5t55.5 23.5
t55 -23t23 -54z" />
    <glyph glyph-name="perthousand" unicode="&#x2030;" horiz-adv-x="870" 
d="M845 122q0 -63 -31.5 -95.5t-82.5 -32.5t-82.5 32.5t-31.5 95.5v118q0 63 31.5 95.5t82.5 32.5t82.5 -32.5t31.5 -95.5v-118zM253 472q0 -63 -31.5 -95.5t-82.5 -32.5t-82.5 32.5t-31.5 95.5v118q0 63 31.5 95.5t82.5 32.5t82.5 -32.5t31.5 -95.5v-118zM473 712
l-252 -712h-87l252 712h87zM582 122q0 -63 -31 -95.5t-82 -32.5t-83 32.5t-32 95.5v118q0 63 32 95.5t83 32.5t82 -32.5t31 -95.5v-118zM760 124v113q0 27 -6.5 38t-22.5 11q-17 0 -23.5 -11t-6.5 -38v-113q0 -26 7 -37.5t23 -11.5q29 0 29 49zM168 475v112q0 27 -6.5 38.5
t-22.5 11.5t-23 -11.5t-7 -38.5v-112q0 -27 6.5 -38t23.5 -11q29 0 29 49zM498 124v113q0 49 -29 49q-17 0 -23.5 -11t-6.5 -38v-113q0 -26 7 -37.5t23 -11.5q29 0 29 49z" />
    <glyph glyph-name="guilsinglleft" unicode="&#x2039;" horiz-adv-x="296" 
d="M257 37l-237 239l237 237v-149l-89 -88l89 -89v-150z" />
    <glyph glyph-name="guilsinglright" unicode="&#x203a;" horiz-adv-x="296" 
d="M276 276l-237 -239v150l89 89l-89 88v149z" />
    <glyph glyph-name="afii61352" unicode="&#x2116;" horiz-adv-x="761" 
d="M724 284q0 -63 -31 -95.5t-82 -32.5t-82.5 32.5t-31.5 95.5v74q0 64 31.5 96.5t82.5 32.5t82 -32.5t31 -96.5v-74zM724 0h-227v104h227v-104zM449 0h-108l-150 363l-22 63l2 -69v-357h-123v712h109l150 -362l21 -65l-2 70v357h123v-712zM640 287v69q0 49 -29 49
q-16 0 -23 -11.5t-7 -37.5v-69q0 -26 7 -37.5t23 -11.5q29 0 29 49z" />
    <glyph glyph-name="trademark" unicode="&#x2122;" horiz-adv-x="921" 
d="M860 285h-95v251l-80 -156h-84l-79 156v-251h-96v427h96l121 -228l122 228h95v-427zM360 627h-110v-342h-95v342h-110v85h315v-85z" />
    <glyph glyph-name="radical" unicode="&#x221a;" horiz-adv-x="568" 
d="M545 588h-92l-194 -588h-105l-128 391h137l44 -142l142 463h196v-124z" />
    <glyph glyph-name="infinity" unicode="&#x221e;" horiz-adv-x="851" 
d="M797 285q0 -85 -52 -137t-136 -52q-56 0 -98 23.5t-86 70.5q-43 -47 -85 -70.5t-98 -23.5q-85 0 -136.5 52t-51.5 137t52 137t136 52q55 0 96.5 -24t86.5 -71q45 48 86.5 71.5t97.5 23.5q84 0 136 -52t52 -137zM670 281q0 28 -18 46.5t-45 18.5q-24 0 -43.5 -15
t-49.5 -50q30 -35 49 -50t44 -15q27 0 45 18.5t18 46.5zM337 281q-30 35 -49.5 50.5t-43.5 15.5q-27 0 -45 -18.5t-18 -47.5q0 -28 18 -46.5t45 -18.5q25 0 44 15t49 50z" />
    <glyph glyph-name="approxequal" unicode="&#x2248;" horiz-adv-x="413" 
d="M418 397q-27 -42 -58.5 -65t-79.5 -23q-31 0 -79 24q-4 2 -12 6.5t-12.5 6.5l-10.5 4.5t-12 3.5t-12 1q-35 0 -67 -37l-79 68q27 42 58 65t79 23q32 0 80 -24q5 -3 15 -8l15 -7.5t13 -5t16 -2.5q35 0 66 38zM418 193q-27 -42 -58.5 -65t-79.5 -23q-31 0 -79 24
q-4 2 -12 6.5t-12.5 6.5l-10.5 4.5t-12 3.5t-12 1q-35 0 -67 -37l-79 68q27 42 58 65t79 23q32 0 80 -24q5 -3 15 -8l15 -7.5t13 -5t16 -2.5q35 0 66 38z" />
    <glyph glyph-name="notequal" unicode="&#x2260;" 
d="M371 118h-176l-54 -119l-90 42l35 77h-44v118h94l45 99h-139v118h189l48 108l92 -36l-32 -72h32v-118h-84l-42 -99h126v-118z" />
    <glyph glyph-name="lessequal" unicode="&#x2264;" 
d="M386 191l-357 115v121l357 111v-120l-189 -51l189 -55v-121zM386 -18h-357v121h357v-121z" />
    <glyph glyph-name="greaterequal" unicode="&#x2265;" 
d="M386 306l-357 -115v121l189 55l-189 51v120l357 -111v-121zM386 -18h-357v121h357v-121z" />
    <glyph glyph-name="hyphenminus" horiz-adv-x="294" 
d="M253 229h-212v110h212v-110z" />
    <glyph glyph-name="periodcentered" horiz-adv-x="232" 
d="M194 288q0 -34 -22.5 -57t-55.5 -23q-32 0 -55.5 23t-23.5 55q0 33 23.5 56t55.5 23t55 -22.5t23 -54.5z" />
    </font>
</defs>
</svg>
